<?xml version="1.0" encoding="UTF-8" standalone="no"?>
<!-- Created with Inkscape (http://www.inkscape.org/) -->

<svg
   width="222.28055mm"
   height="145.71571mm"
   viewBox="0 0 222.28055 145.71571"
   version="1.1"
   id="svg4734"
   inkscape:version="1.2.2 (b0a8486541, 2022-12-01)"
   sodipodi:docname="time_efficiency.svg"
   xmlns:inkscape="http://www.inkscape.org/namespaces/inkscape"
   xmlns:sodipodi="http://sodipodi.sourceforge.net/DTD/sodipodi-0.dtd"
   xmlns="http://www.w3.org/2000/svg"
   xmlns:svg="http://www.w3.org/2000/svg">
  <sodipodi:namedview
     id="namedview4736"
     pagecolor="#ffffff"
     bordercolor="#000000"
     borderopacity="0.25"
     inkscape:showpageshadow="2"
     inkscape:pageopacity="0.0"
     inkscape:pagecheckerboard="0"
     inkscape:deskcolor="#d1d1d1"
     inkscape:document-units="mm"
     showgrid="false"
     inkscape:zoom="0.2102413"
     inkscape:cx="1467.3615"
     inkscape:cy="-658.76685"
     inkscape:window-width="1803"
     inkscape:window-height="1091"
     inkscape:window-x="0"
     inkscape:window-y="0"
     inkscape:window-maximized="1"
     inkscape:current-layer="layer1" />
  <defs
     id="defs4731" />
  <g
     inkscape:label="Layer 1"
     inkscape:groupmode="layer"
     id="layer1"
     transform="translate(-16.859725,-55.14214)">
    <path
       style="fill:#df0c0b;fill-opacity:1;stroke-width:0.766845"
       d="m 100.07804,199.83393 c -0.573317,-0.69084 -0.915837,-9.03112 -1.052437,-25.62703 l -0.20259,-24.60289 -6.13478,5.29372 c -7.19806,6.21127 -11.20701,8.38486 -15.46481,8.38486 -4.19213,0 -4.90781,-0.39255 -36.01794,-19.75615 -3.00955,-1.87321 -5.93491,-4.2709 -6.50075,-5.32818 -2.40108,-4.48651 -0.45941,-10.96825 3.76923,-12.58244 1.15173,-0.43967 5.97769,-0.67217 10.88747,-0.52459 l 8.81871,0.2652 8.72434,5.19091 8.72434,5.19092 8.91314,-8.71426 c 6.85811,-6.70511 10.14704,-9.32012 14.26494,-11.34201 l 5.351797,-2.62779 h 23.78834 23.78837 l 5.18245,2.5344 c 3.89053,1.9026 7.46769,4.73765 14.3496,11.37262 l 9.16712,8.83822 9.43115,-5.42956 9.43115,-5.42954 h 8.97528 c 8.88001,0 9.00307,0.0232 11.59672,2.30167 1.4418,1.2659 2.79447,3.20676 3.00593,4.31293 0.5883,3.0774 -0.77962,6.88959 -3.20418,8.92975 -4.49911,3.78575 -35.89867,22.09306 -38.66166,22.54146 -4.85129,0.78724 -8.83946,-0.9661 -16.96791,-7.45975 -4.19068,-3.34785 -7.89273,-6.08699 -8.22679,-6.08699 -0.33406,0 -0.69829,11.47395 -0.80941,25.49766 l -0.20201,25.49762 h -1.91712 -1.9171 V 170.9511 c 0,-28.94178 0.0301,-29.52791 1.53411,-29.74354 1.0034,-0.14376 5.18802,2.70798 12.09593,8.24359 14.21804,11.39346 12.08395,11.51525 34.33784,-1.95975 9.46773,-5.73284 17.64542,-10.77879 18.17262,-11.21319 1.21761,-1.00328 1.2392,-3.84888 0.0383,-5.04974 -0.59955,-0.59954 -3.74237,-0.92021 -9.01884,-0.92021 H 200.03 l -9.18541,5.36791 c -5.05197,2.95237 -9.87935,5.36181 -10.72748,5.3543 -0.90845,-0.009 -5.69308,-3.92798 -11.64495,-9.54051 -5.55659,-5.23975 -11.43145,-10.20463 -13.05526,-11.03302 -5.42125,-2.76572 -11.19525,-3.34472 -30.57383,-3.06579 l -18.35159,0.26404 -4.77913,2.30054 c -3.450467,1.66097 -7.537127,4.91213 -14.699647,11.69442 -5.45632,5.16663 -10.5619,9.39385 -11.34575,9.39385 -0.78385,0 -5.38415,-2.41166 -10.22286,-5.35925 l -8.79761,-5.35928 -8.09025,-0.009 c -8.52575,-0.009 -9.93065,0.48274 -9.93065,3.47668 0,2.25723 0.50248,2.6261 19.12852,14.04214 21.73897,13.324 19.82017,13.30742 34.76244,0.30033 6.00932,-5.23103 8.728837,-7.12726 9.969027,-6.95095 l 1.70537,0.24259 0.20114,28.66679 c 0.20259,28.87825 0.0493,30.76381 -2.50168,30.76381 -0.52935,0 -1.34494,-0.46086 -1.81244,-1.02415 z M 37.091963,121.4177 c -5.18822,-1.37908 -11.76526,-5.77756 -14.78136,-9.88529 -4.21616,-5.74218 -5.38282,-9.35687 -5.44893,-16.882581 -0.0797,-9.08562 2.27727,-14.60996 8.81683,-20.6644 14.18187,-13.12995 35.91638,-8.92942 44.55108,8.61018 2.19347,4.45558 2.50119,5.83799 2.50434,11.25092 0.006,7.538351 -1.6838,12.840821 -5.70974,17.934031 -3.66486,4.63638 -9.08599,8.14181 -14.95569,9.67067 -5.55921,1.44797 -9.4355,1.43931 -14.97653,-0.0336 z m 15.54121,-5.35377 c 4.40416,-1.50066 9.88995,-6.24646 12.65251,-10.94582 1.86487,-3.17229 2.0967,-4.32979 2.0967,-10.468281 0,-7.69819 -0.90783,-10.30193 -5.43675,-15.59295 -6.33004,-7.39523 -18.27313,-9.70255 -27.29348,-5.27288 -5.12631,2.51739 -8.56725,6.17808 -11.18796,11.90243 -1.64074,3.58386 -1.85023,4.94604 -1.55226,10.09357 0.40962,7.075431 2.45149,11.172081 8.00489,16.060381 5.82696,5.1291 15.0345,6.84102 22.71635,4.22355 z m -4.64056,-15.65147 c -2.96077,-2.079281 -5.50315,-4.132741 -5.64969,-4.563221 -0.14665,-0.43049 -0.15679,-4.26082 -0.0232,-8.51181 0.18491,-5.86628 0.51068,-7.83154 1.35174,-8.1543 2.4654,-0.94607 3.38843,1.24112 3.41153,8.08381 l 0.0232,6.61602 4.57874,3.32391 c 4.80288,3.486621 5.53161,4.930901 3.13508,6.213471 -1.17011,0.62624 -2.46369,0.0562 -6.82687,-3.00788 z M 204.8365,121.8559 c -21.14905,-5.34241 -28.64651,-31.762951 -13.3533,-47.056151 13.96948,-13.96946 36.70562,-10.15513 45.43419,7.62228 2.02563,4.12561 2.23704,5.28882 2.2222,12.2278 -0.0145,6.481011 -0.29581,8.236061 -1.8207,11.334011 -4.71086,9.57056 -13.5838,15.61382 -23.85225,16.24547 -3.16325,0.19448 -7.04682,0.0261 -8.63014,-0.37341 z m 14.09335,-5.76583 c 7.45836,-2.6266 12.58922,-8.15375 14.87808,-16.0272 5.28256,-18.171291 -14.82428,-34.705291 -31.96711,-26.286781 -8.49377,4.17111 -13.32533,11.82435 -13.17777,20.87374 0.16984,10.418171 5.65276,18.040371 15.51115,21.563251 3.80141,1.35844 10.71262,1.30082 14.75565,-0.12289 z m -13.36078,-8.50517 c -0.29577,-0.29574 -0.53775,-1.30268 -0.53775,-2.23762 0,-1.05493 -0.58187,-1.85202 -1.5337,-2.10093 -0.84353,-0.22056 -1.53368,-0.93885 -1.53368,-1.59616 0,-0.65728 0.69015,-1.56442 1.53368,-2.015871 0.84355,-0.45144 1.5337,-1.28604 1.5337,-1.85466 0,-0.56862 -0.69015,-1.21433 -1.5337,-1.43493 -0.84353,-0.22056 -1.53368,-0.93885 -1.53368,-1.59616 0,-0.65728 0.69015,-1.56442 1.53368,-2.01586 1.29018,-0.6905 1.5337,-1.60564 1.5337,-5.76374 0,-4.66087 0.11188,-4.97093 1.95871,-5.43452 3.23313,-0.81144 9.51524,0.14144 11.70361,1.77533 2.71004,2.02335 3.71237,5.58782 2.43705,8.6667 -1.20266,2.9035 -4.28696,4.59044 -8.39283,4.59044 -2.59423,0 -3.10546,0.25244 -3.10546,1.5337 0,1.27425 0.51123,1.5337 3.02213,1.5337 3.25423,0 4.15526,0.689571 3.41651,2.614751 -0.32797,0.85471 -1.46035,1.21947 -3.78578,1.21947 -3.04671,0 -3.33765,0.17187 -3.56047,2.10229 -0.23186,2.00961 -2.0194,3.15041 -3.15572,2.01407 z m 10.52675,-16.057261 c 2.84534,-2.84533 0.87689,-5.69655 -3.93281,-5.69655 h -3.29745 v 2.93956 c 0,1.61677 0.23013,3.16966 0.51124,3.45082 0.97467,0.97468 5.51984,0.50535 6.71902,-0.69383 z m -95.50787,15.483281 c -7.2073,-2.5755 -13.21534,-8.676661 -15.74392,-15.987931 -1.97248,-5.70337 -1.78229,-14.24137 0.44533,-19.98961 2.3732,-6.12388 8.21455,-12.02271 14.07794,-14.2165 12.42471,-4.64867 25.41963,0.62919 31.38147,12.74555 2.28564,4.64519 2.52043,5.76797 2.52043,12.05387 0,6.28648 -0.23447,7.40798 -2.52043,12.051 -4.51987,9.180621 -12.79738,14.438081 -22.62256,14.368671 -2.62022,-0.0174 -6.01244,-0.47979 -7.53826,-1.02505 z m 15.81061,-5.744 c 4.02017,-1.836291 9.00018,-7.333501 10.71772,-11.830821 1.69543,-4.43941 1.33117,-13.37619 -0.70954,-17.40825 -3.64318,-7.1982 -10.51895,-11.76954 -17.67663,-11.75227 -5.53208,0.0145 -9.10521,1.42734 -13.39066,5.29897 -4.29116,3.87679 -6.17623,7.83629 -6.69891,14.07063 -0.76724,9.15193 3.76256,17.63067 11.45305,21.437381 4.22899,2.09333 11.93498,2.18046 16.30497,0.18433 z"
       id="path179-7"
       sodipodi:nodetypes="sscsssssscccsscccsscccscsssssscccssssssscscssscssssccsssscssssssssscssssssssssssscscsccsscccsscsscssssssssssssssssssssssssssssscsssssssssscsssscsssss" />
  </g>
</svg>
