<?xml version="1.0" encoding="UTF-8" standalone="no"?>
<svg
   viewBox="0 0 48 48"
   version="1.1"
   id="svg6081"
   sodipodi:docname="fittings_icon.svg"
   inkscape:version="1.2.2 (b0a8486541, 2022-12-01)"
   xmlns:inkscape="http://www.inkscape.org/namespaces/inkscape"
   xmlns:sodipodi="http://sodipodi.sourceforge.net/DTD/sodipodi-0.dtd"
   xmlns:xlink="http://www.w3.org/1999/xlink"
   xmlns="http://www.w3.org/2000/svg"
   xmlns:svg="http://www.w3.org/2000/svg">
  <defs
     id="defs6085">
    <linearGradient
       id="linearGradient6569"
       inkscape:swatch="solid">
      <stop
         style="stop-color:#ffffff;stop-opacity:1;"
         offset="0"
         id="stop6567" />
    </linearGradient>
    <linearGradient
       inkscape:collect="always"
       xlink:href="#linearGradient6569"
       id="linearGradient6571"
       x1="23.537695"
       y1="24"
       x2="43.999996"
       y2="24"
       gradientUnits="userSpaceOnUse"
       gradientTransform="translate(0,-1)" />
    <linearGradient
       inkscape:collect="always"
       xlink:href="#linearGradient6569"
       id="linearGradient6573"
       x1="4.0000039"
       y1="24"
       x2="38.73"
       y2="24"
       gradientUnits="userSpaceOnUse"
       gradientTransform="translate(0,-1)" />
    <linearGradient
       inkscape:collect="always"
       xlink:href="#linearGradient6569"
       id="linearGradient6575"
       x1="9.27"
       y1="23.262"
       x2="21.97"
       y2="23.262"
       gradientUnits="userSpaceOnUse"
       gradientTransform="translate(0,-1)" />
  </defs>
  <sodipodi:namedview
     id="namedview6083"
     pagecolor="#ffffff"
     bordercolor="#000000"
     borderopacity="0.25"
     inkscape:showpageshadow="2"
     inkscape:pageopacity="0.0"
     inkscape:pagecheckerboard="0"
     inkscape:deskcolor="#d1d1d1"
     showgrid="false"
     inkscape:zoom="4.9166667"
     inkscape:cx="-16.474576"
     inkscape:cy="24.101695"
     inkscape:window-width="1803"
     inkscape:window-height="1091"
     inkscape:window-x="0"
     inkscape:window-y="0"
     inkscape:window-maximized="1"
     inkscape:current-layer="svg6081" />
  <path
     fill="none"
     stroke="currentColor"
     stroke-linecap="round"
     stroke-linejoin="round"
     d="m 24.105,12.881 c 0,0 2.425,1.37 3.69,4.849 m -3.69,15.389 c 0,-4.638 -1.16,-13.176 6.325,-16.443 7.589,-3.268 13.07,-2.108 13.07,-2.108 0,0 -0.738,7.905 -6.008,11.805 -5.27,3.9 -13.176,3.373 -13.176,3.373"
     id="path6075"
     style="stroke:url(#linearGradient6571);stroke-width:2;stroke-dasharray:none;stroke-opacity:1" />
  <path
     fill="none"
     stroke="currentColor"
     stroke-linecap="round"
     stroke-linejoin="round"
     d="m 38.23,14.778 c 0,0 -0.422,5.692 -3.373,9.908 -2.952,4.217 -8.327,5.06 -8.327,5.06 M 23.895,12.881 c 0,0 -2.425,1.37 -3.69,4.849 m 3.69,21.389 c 0,-4.638 1.16,-19.176 -6.325,-22.443 C 10.087,13.408 4.5,14.568 4.5,14.568 c 0,0 0.738,7.905 6.008,11.805 5.27,3.9 13.176,3.373 13.176,3.373"
     id="path6077"
     style="stroke:url(#linearGradient6573);stroke-width:2;stroke-dasharray:none;stroke-opacity:1"
     sodipodi:nodetypes="ccccccccsc" />
  <path
     fill="none"
     stroke="currentColor"
     stroke-linecap="round"
     stroke-linejoin="round"
     d="m 9.77,14.778 c 0,0 0.422,5.692 3.373,9.908 2.952,4.217 8.327,5.06 8.327,5.06"
     id="path6079"
     style="stroke:url(#linearGradient6575);stroke-width:2;stroke-dasharray:none;stroke-opacity:1" />
</svg>
